<?xml version="1.0" encoding="UTF-8"?>
<svg xmlns="http://www.w3.org/2000/svg" width="50" height="50" viewBox="0 0 50 50" fill="none">
  <mask id="mask0_740_3769" style="mask-type:luminance" maskUnits="userSpaceOnUse" x="0" y="0" width="50" height="50">
    <path d="M0 24.9C0 38.6 11.1 49.8 24.9 49.8C38.7 49.8 49.8 38.7 49.8 24.9C49.8 11.2 38.7 0 24.9 0C11.1 0 0 11.2 0 24.9Z" fill="white"></path>
  </mask>
  <g mask="url(#mask0_740_3769)">
    <path d="M44 42.5004C43.3 43.1004 42.4 43.7004 41.3 44.3004C40.3 44.9004 39.3 45.5004 38.2 46.0004M35.6 47.3004C34.1 47.9004 32.6 48.5004 31.2 48.9004M26.8 48.8004C23.8 49.6004 21.2 50.1004 19.3 49.9004M48.5 34.0004C48 35.0004 46.9 36.1004 45.2 37.3004M42.9 38.9004C42.1 39.4004 41.3 40.0004 40.4 40.5004C39.5 41.1004 38.5 41.6004 37.5 42.2004M31.3 45.2004C30 45.7004 28.7 46.2004 27.4 46.7004M49.3 29.3004C48.7 31.4004 45.6 34.5004 40.4 37.7004C40.2 37.8004 40 37.9004 39.8 38.1004M36.2 40.1004C33 41.8004 29.6 43.2004 26.4 44.4004M23.4 45.3004C22.3 45.6004 21.3 45.9004 20.3 46.1004M13.9 47.0004C13.5 47.0004 13.1 47.0004 12.7 46.9004M49.6 24.5004C49.6 25.5004 49 26.7004 47.8 28.1004M45.4 30.5004C44.5 31.2004 43.6 32.0004 42.4 32.8004M39.8 34.5004C37.9 35.7004 35.8 36.8004 33.7 37.8004M31.3 39.0004C29.4 39.8004 27.5 40.6004 25.7 41.3004M18 43.7004C16.3 44.1004 14.7 44.4004 13.3 44.5004M49.1 20.1004C49.6 22.5004 45.9 26.6004 38.8 31.0004C38.4 31.2004 38 31.5004 37.6 31.7004M32.3 34.6004C25.3 38.0004 17.9 40.5004 12.2 41.4004M8.69998 41.6004C8.19998 41.6004 7.69999 41.6004 7.29999 41.5004M47.8 15.8004C48.8 18.2004 45 22.5004 37.4 27.2004C32.6 30.2004 27.1 32.7004 21.8 34.7004M10.5 37.7004C9.3 37.9004 8.09998 38.0004 7.09998 38.0004M45.4 11.1004L45.8 11.7004C47.1 13.8004 44.1 17.7004 37.6 22.1004M32 25.4004C29.9 26.5004 27.7 27.6004 25.5 28.6004C24.2 29.2004 22.9 29.7004 21.6 30.2004C21 30.4004 20.5 30.6004 19.9 30.8004M14.5 32.5004C12.8 33.0004 11.1 33.3004 9.59998 33.6004M6.39999 34.0004C5.39999 34.1004 4.49998 34.1004 3.69998 34.0004M42.8 7.80038L43 8.10037C44.9 10.2004 41.4 14.7004 33.4 19.6004C30.4 21.5004 27.1 23.2004 23.7 24.6004M18.4 26.8004C16.9 27.4004 15.3 27.9004 13.9 28.3004M7.09998 29.7004C6.39998 29.8004 5.7 29.9004 5 29.9004M39.7 5.10037C42.1 7.00037 38.9 11.4004 31.1 16.1004C30.5 16.4004 30 16.8004 29.4 17.1004M23.8 20.1004C21.2 21.3004 18.6 22.4004 16.1 23.2004M11.9 24.5004C10.9 24.8004 9.99998 25.0004 9.09998 25.2004M4.29999 25.8004C3.69999 25.8004 3.1 25.8004 2.5 25.8004M36.1 2.70038C38.8 4.10038 36.2 8.00039 29.5 12.4004C29.3 12.6004 29 12.7004 28.7 12.9004M26.8 14.0004C25.3 14.9004 23.7 15.7004 22.1 16.4004M20.1 17.3004C19.2 17.7004 18.2 18.1004 17.3 18.4004M14.5 19.5004C13.4 19.9004 12.4 20.2004 11.4 20.4004M32 1.0004C34.6 1.8004 33.7 4.30039 29.8 7.40039M28.2 8.60037C27.5 9.10037 26.8 9.5004 26.1 10.0004C24.9 10.8004 23.6 11.5004 22.3 12.2004M20.4 13.1004C18.2 14.1004 15.9 15.1004 13.7 15.8004M27.4 0.000396729C31.1 0.400397 29.6 3.60038 24 7.20038C23.8 7.30038 23.6 7.40037 23.4 7.60037M22.1 8.40039C21.4 8.80039 20.6 9.20037 19.8 9.60037M17.5 10.6004C16.5 11.0004 15.5 11.4004 14.5 11.8004M23.7 -0.0996094C26.7 0.200391 25.4 2.7004 20.8 5.5004C20.3 5.8004 19.8 6.10039 19.3 6.40039M18 7.10037C17.5 7.40037 17 7.60038 16.5 7.80038M13.1 9.10037C13 9.10037 12.8 9.20038 12.7 9.20038C12.6 9.20038 12.4 9.30038 12.3 9.30038M20.1 0.500397C21.7 0.700397 21.4 1.80038 19.5 3.20038M18.4 3.90039C18.3 3.90039 18.3 4.0004 18.2 4.0004C18 4.1004 17.7 4.30039 17.5 4.40039M15.8 5.40039C15.6 5.50039 15.5 5.50037 15.3 5.60037C15.2 5.60037 15.1 5.70038 15.1 5.70038M16.5 1.80038C17.2 1.90038 16.9 2.50037 15.8 3.10037C15.5 3.30037 15.1 3.50038 14.7 3.70038" stroke="#1A9E7D" stroke-width="0.845" stroke-miterlimit="10" stroke-linecap="round" stroke-linejoin="round"></path>
  </g>
</svg>
